<svg xmlns="http://www.w3.org/2000/svg" xmlns:cc="http://web.resource.org/cc/" xmlns:ns1="http://sozi.baierouge.fr" xmlns:svg="http://www.w3.org/2000/svg" xmlns:xlink="http://www.w3.org/1999/xlink" enable-background="new 0 0 578.562 557.741" overflow="visible" viewBox="0 0 578.562 557.741" xml:space="preserve"><switch><g><g id="Layer_1"><g><g><g><g><g><path fill="none" d="m530.59 504.63c20.26 15.771 11.77 44.248-15.606 43.764-11.406-0.201-18.153-5.826-22.542-15.813-5.47-13.307 6.054-19.709 6.248-30.715-0.869-15.428-29.171-28.037-40.402-38.145-16.839-15.709-33.715-29.219-51.715-43.848-39.359-32.623-89.045-62.125-122.6-100.15-21.245-24.595-40.249-46.95-66.134-67.222-20.258-15.771-41.68-30.461-60.798-46.213-19.121-15.75-34.682-39.145-51.481-57.056-7.808-10.045-15.618-20.092-24.608-27.957-17.958-16.832-14.691-7.967-31.919-1.665-20.687 8.442-47.751-9.651-48.484-32.783-1.699-33.059 34.997-43.419 50.46-14.523-6.473-21.03-16.41-39.923 10.039-51.567 20.707-9.542 43.347 0.766 48.64 23.979 3.247 9.965-1.471 18.69-2.787 28.574-3.691 15.348-3.672 14.247 9.8 26.595 17.959 16.831 35.958 31.461 50.438 51.534 13.356 18.953 24.414 38.964 41.25 54.672 15.701 15.692 36.095 23.759 54.113 37.287 36.014 28.16 74.313 56.357 110.33 84.517 22.501 18.012 37.967 46.91 56.988 68.162 22.406 23.516 43.846 37.105 70.911 55.197 7.888 5.645 22.424 22.414 32.671 23.697 12.547 0.223 18.561-17.287 35.458-4.879 9.008 6.764 13.202 27.756 5.062 36.42-11.64 13.006-27.434 2.818-41.063-0.725"/><path d="m530.59 507.55c3.922 3.168 7.057 6.9 9.143 11.512 2.255 4.986 1.785 9.457-0.68 14.227-4.562 8.828-14.741 12.191-24.069 12.189-5.214 0-10.173-1.518-14.375-4.592-4.328-3.168-10.292-11.293-8.943-16.922 1.06-4.426 3.845-8.344 5.604-12.502 1.461-3.447 1.89-7.35 1.672-11.066-0.5-8.541-6.719-14.625-12.982-19.752-8.041-6.584-17.236-11.574-25.427-17.953-5.227-4.07-9.919-8.934-14.898-13.307-6.074-5.334-12.275-10.523-18.508-15.672-11.48-9.482-22.987-18.969-34.753-28.096-22.505-17.461-46.014-33.584-68.242-51.406-10.897-8.738-21.423-17.947-31.26-27.869-10.082-10.172-19.058-21.416-28.584-32.098-9.568-10.729-19.511-21.116-30.114-30.83-11.435-10.476-23.896-19.708-36.339-28.933-12.743-9.446-25.559-18.795-37.912-28.75-11.018-8.879-20.442-19.239-29.496-30.072-8.569-10.254-17.797-20.243-25.986-30.774-9-11.574-18.332-22.674-29.713-32.007-2.569-2.106-5.648-4.403-9.137-4.182-2.803 0.178-5.532 2.462-7.84 3.841-9.092 5.435-18.777 7.69-29.136 4.916-21.746-5.84-37.561-33.463-19.847-51.93 5.407-5.637 13.374-7.958 20.998-6.891 9.463 1.324 16.724 8.461 21.175 16.484-0.301-0.543 0.578-4.269 0.155-5.626-2.984-9.583-9.594-22.114-5.758-32.07 3.931-10.201 17.186-15.679 27.205-17.059 10.354-1.426 20.666 2.469 27.97 9.78 4.032 4.037 6.65 9.232 8.374 14.61 2.866 8.941-0.581 19.563-2.719 28.499-1.324 5.534-3.059 12.746-0.453 18.193 1.549 3.237 4.883 5.764 7.454 8.125 5.544 5.091 11.077 10.195 16.638 15.268 10.775 9.828 21.399 19.811 30.77 31.014 9.634 11.519 17.245 24.635 25.814 36.935 7.849 11.266 16.628 21.766 26.979 30.826 10.528 9.215 23.07 15.851 34.932 23.135 13.056 8.018 24.835 17.848 36.975 27.154 12.826 9.833 25.715 19.583 38.591 29.351 12.837 9.738 25.659 19.494 38.407 29.348 11.331 8.756 21.609 17.686 30.768 28.746 8.738 10.553 16.48 21.893 24.733 32.82 8.396 11.115 17.714 21.049 28.159 30.27 16.95 14.961 36.051 27.211 54.805 39.736 11.291 7.543 24.404 29.225 40.069 21.838 6.226-2.938 11.05-8.035 18.449-7.354 9.301 0.857 15.09 9.354 17.551 17.477 3.492 11.535-3.177 22.377-15.228 23.791-9.73 1.143-19.59-4.576-28.714-7.072 0.063 0.018-0.88 5.594 0 5.834 10.834 2.965 22.467 9.891 33.883 5.887 9.271-3.25 11.822-12.729 11.822-21.475 0-8.484-1.87-17.307-7.499-23.904-6.831-8.01-16.346-7.479-24.464-2.455-3.292 2.037-6.45 4.127-10.267 5.027-4.65 1.096-9.105-1.734-12.809-4.203-8.805-5.869-15.515-14.361-24.293-20.225-23.048-15.395-45.994-30.691-65.687-50.367-19.301-19.285-32.156-44.016-51.311-63.498-10.527-10.709-23.341-19.344-35.237-28.445-12.841-9.824-25.738-19.576-38.618-29.351-12.821-9.73-25.622-19.486-38.343-29.347-11.571-8.97-23.686-16.532-36.176-24.136-12.149-7.396-23.053-15.858-32.685-26.359-9.999-10.901-17.991-23.495-26.157-35.771-7.869-11.83-16.291-22.84-26.229-33.027-10.236-10.494-21.383-20.064-32.089-30.066-3.562-3.328-7.775-6.43-10.492-10.541-2.405-3.638 0.683-10.112 1.426-14.063 1.119-5.949 2.932-11.579 3.391-17.645 0.373-4.914-0.441-9.484-1.607-14.223-2.5-10.164-9.419-18.708-18.82-23.229-10.041-4.83-21.276-3.238-31.066 1.244-8.594 3.935-14.755 10.34-15.93 19.869-0.979 7.946 0.764 15.92 3.056 23.477 1.348 4.443 2.892 8.825 4.272 13.258 0.052-1.875 0.104-3.75 0.155-5.626-8.256-14.88-26.489-23.106-40.946-11.089-12.718 10.608-12.61 33.406-5 46.794 5.015 8.821 13.901 15.194 23.497 18.111 10.231 3.109 20.163 0.296 29.136-4.916 2.5-1.452 4.917-3.375 7.84-3.841 3.78-0.604 7.592 2.915 10.225 5.074 11.46 9.397 20.691 20.911 29.741 32.55 4.012 5.16 8.791 9.864 12.98 14.904 4.711 5.67 9.339 11.409 14.083 17.051 9.204 10.946 19.045 20.865 30.219 29.797 24.414 19.515 50.93 36.424 73.902 57.707 21.081 19.531 38.158 42.666 58.456 62.892 20.067 19.998 43.101 36.82 65.867 53.563 23.529 17.305 46.447 35.221 68.939 53.859 10.889 9.021 20.947 19.377 32.209 27.887 8.397 6.344 17.629 11.465 25.688 18.277 3.688 3.117 7.063 6.705 9.241 11.049 2.366 4.721-1.386 9.617-3.527 13.896-3.641 7.273-4.079 16.191-0.663 23.639 4.691 10.229 13.636 14.982 24.707 14.592 8.83-0.314 17.111-4.627 21.551-12.354 7.082-12.324 1.765-28.811-8.618-37.197 0.63 0.51-1.18 4.89-0.01 5.83z"/></g></g></g><g><g><path fill="none" d="m65.368 510.82c-19.359 16.594-10.16 45.262 16.646 43.986 11.17-0.533 17.607-6.438 21.596-16.701 4.944-13.672-6.543-19.84-7.075-31.01 0.372-15.689 27.71-29.307 38.399-39.891 16.01-16.436 32.127-30.635 49.306-46.006 37.551-34.254 85.311-65.635 117.01-105.2 20.051-25.582 37.976-48.826 62.708-70.153 19.358-16.594 39.889-32.125 58.133-48.667 18.243-16.54 32.764-40.741 48.665-59.41 7.341-10.425 14.68-20.85 23.243-29.093 17.071-17.604 14.147-8.511 31.221-2.606 20.53 7.978 46.485-11.17 46.485-34.678 0.638-33.614-35.635-43.081-49.89-13.296 5.69-21.54 14.839-41.008-11.437-52.07-20.583-9.095-42.441 2.021-46.909 25.744-2.873 10.211 2.02 18.935 3.616 28.933 4.096 15.477 4.043 14.36-8.776 27.285-17.071 17.605-34.252 32.976-47.814 53.772-12.499 19.626-22.71 40.263-38.72 56.697-14.893 16.383-34.624 25.158-51.857 39.412-34.41 29.626-71.056 59.357-105.47 88.981-21.486 18.936-35.742 48.721-53.718 70.846-21.22 24.521-41.806 38.934-67.76 58.08-7.553 5.959-21.273 23.402-31.274 24.998-12.287 0.586-18.72-17.02-34.891-3.934-8.617 7.127-12.074 28.561-3.83 37.123 11.809 12.871 26.966 2.076 40.21-1.914"/><path d="m65.368 507.91c-11.355 10.104-15.071 29.396-4.792 41.686 6.389 7.639 17.582 9.395 26.848 7.363 9.321-2.043 16.576-11.807 17.468-21.09 0.347-3.605 0.348-7.215-0.356-10.777-0.917-4.639-3.758-8.705-5.778-12.904-1.142-2.375-2.046-4.553-1.201-7.117 0.668-2.025 1.841-3.869 3.035-5.613 3.243-4.742 7.875-8.568 12.308-12.141 8.283-6.674 17.208-12.311 24.704-19.918 10.905-11.063 22.384-21.545 33.937-31.924 21.32-19.156 43.279-37.35 65.482-55.463 21.657-17.668 43.079-35.912 61.145-57.342 18.673-22.148 35.399-45.479 56.497-65.525 22.523-21.402 48.648-38.737 70.95-60.389 9.686-9.403 17.825-20.349 25.862-31.149 8.474-11.386 17.37-22.423 25.677-33.919 4.465-6.179 9.18-12.161 14.432-17.692 3.989-4.203 8.231-9.018 13.389-11.82 2.487-1.351 4.887-0.866 7.288 0.348 3.922 1.981 7.495 4.345 11.617 5.968 19.648 7.738 42.492-6.749 47.021-26.807 3.468-15.356 0.351-35.632-15.594-42.628-14.054-6.167-27.485 3.993-33.567 16.229 0.052 1.871 0.103 3.742 0.154 5.613 3.92-14.646 12.148-34.858 1.656-48.666-6.43-8.472-19.22-12.621-29.47-12.251-9.994 0.36-18.806 5.959-24.547 13.912-5.696 7.891-8.065 18.99-7.066 28.608 0.673 6.483 2.809 12.593 4.162 18.942 0.892 4.18 3.379 9.201 1.635 12.605-2.169 4.232-6.661 7.699-9.95 11.007-5.396 5.427-10.768 10.879-16.152 16.316-9.875 9.971-19.41 20.252-27.67 31.621-8.521 11.726-15.258 24.714-23.034 36.931-7.895 12.405-17.007 24.073-28.122 33.762-10.457 9.116-22.629 16.061-33.935 24.029-12.693 8.946-24.137 19.778-36.008 29.771-24.84 20.91-49.897 41.562-74.565 62.677-20.468 17.52-33.603 40.371-48.833 62.225-15.887 22.797-37.032 40.699-59.125 57.244-9.687 7.256-19.198 14.043-27.763 22.611-5.952 5.955-14.914 16.787-24.365 15.395-8.255-1.215-13.502-9.389-22.423-8.443-10.118 1.074-15.415 11.293-17.377 20.02-1.699 7.555-1.744 17.027 1.583 24.137 5.485 11.72 18.965 10.34 28.985 6.73 4.589-1.652 9.031-3.658 13.687-5.131 0.929-0.293-0.132-5.779 0-5.822-10.776 3.406-22.539 11.193-34.051 6.52-13.229-5.369-11.938-22.018-5.61-32.158 2.732-4.377 7.782-7.512 12.79-8.461 4.28-0.811 8.396 1.336 11.944 3.441 3.381 2.006 6.584 4.145 10.479 5.002 4.642 1.021 8.953-2.014 12.497-4.621 8.476-6.234 14.725-15.004 23.173-21.232 11.101-8.182 22.267-16.281 32.99-24.961 10.62-8.61 20.6-17.95 29.8-28.07 8.688-9.555 15.73-20.506 22.84-31.246 7.681-11.6 15.379-23.217 24.565-33.701 9.818-11.205 22.044-20.361 33.398-29.936 24.832-20.939 49.906-41.591 74.613-62.679 21.654-18.481 47.568-31.206 65.999-53.334 8.81-10.576 15.835-22.537 22.886-34.312 7.862-13.13 16.128-25.565 26.304-37.047 7.718-8.708 16.064-16.844 24.261-25.094 3.842-3.867 7.674-7.747 11.487-11.642 2.102-2.147 4.261-4.387 5.452-7.187 1.737-4.083 0.773-9.767-0.15-13.913-1.004-4.508-2.064-9.026-3.222-13.498-0.836-3.232-1.754-6.425-2.388-9.708-0.833-4.312 0.757-9.505 2.193-13.59 6.234-17.732 25.084-25.708 42.415-19.792 8.544 2.916 16.713 8.413 19.362 17.42 1.518 5.161-0.392 11.313-1.703 16.361-1.183 4.548-2.56 9.045-3.774 13.585-0.37 1.383 0.45 5.019 0.154 5.613 4.182-8.412 10.81-15.315 20.23-17.35 7.566-1.634 15.278 1.194 20.786 6.394 19.569 18.474 2.158 47.816-19.666 53.984-10.027 2.834-19.64-0.575-28.274-5.667-2.311-1.363-4.61-2.919-7.401-2.736-4.229 0.278-8.203 4.927-10.969 7.613-10.752 10.441-18.406 22.76-27.909 34.184-8.973 10.787-16.951 22.37-25.539 33.458-18.565 23.972-42.721 41.97-65.987 61.091-23.039 18.934-43.063 39.868-61.677 63.141-8.882 11.105-17.39 22.447-27.107 32.854-9.538 10.213-19.874 19.666-30.424 28.816-21.315 18.488-43.858 35.504-65.167 54.002-10.91 9.469-21.617 19.207-32.274 28.959-9.952 9.107-19.05 19.459-29.412 28.061-12.284 10.197-34.342 20.266-34.847 38.623-0.242 8.814 5.167 14.965 7.759 22.957 1.9 5.855-4.058 13.916-8.057 17.539-3.814 3.457-8.946 4.729-13.943 5.076-9.318 0.652-18.633-3.191-23.681-11.205-6.088-9.668-0.661-20.111 7.035-26.959 1.175-1.02-0.659-5.21 0.014-5.81z"/></g></g><g><path fill="#FFF" d="m390.77 448.46c-5.595-19.506 4.665-37.98 9.326-56.461 3.729-18.48 1.868-35.932 16.786-49.273 16.785-13.348 32.642-18.48 47.56-35.932 14.924-16.426 25.18-31.824 28.909-56.46 2.797-18.48-0.933-37.985 0-57.49 1.865-22.583 2.797-37.98-8.392-58.514-17.718-34.902-60.615-60.568-96.055-63.646-56.883-5.132-110.04 1.025-166.92 10.265-48.492 8.215-131.49 16.427-108.18 94.446l24.283 126.92 30.192 35.781 22.363 14.539 22.364 15.654"/><g><path fill="none" d="m390.77 448.46c-5.595-19.506 4.665-37.98 9.326-56.461 3.729-18.48 1.868-35.932 16.786-49.273 16.785-13.348 32.642-18.48 47.56-35.932 14.924-16.426 25.18-31.824 28.909-56.46 2.797-18.48-0.933-37.985 0-57.49 1.865-22.583 2.797-37.98-8.392-58.514-17.718-34.902-60.615-60.568-96.055-63.646-56.883-5.132-110.04 1.025-166.92 10.265-48.492 8.215-131.49 16.427-108.18 94.446l24.283 126.92 30.192 35.781 22.363 14.539 22.364 15.654"/><path d="m390.84 446.01c-4.617-17.516 4.989-34.918 9.326-51.549 3.113-11.938 2.377-24.396 7.173-35.979 5.336-12.885 18.271-19.715 29.502-26.754 11.642-7.297 21.5-15.404 30.591-25.73 16.062-18.243 25.627-39.272 27.048-63.692 0.909-15.617-1.355-31.21-0.958-46.827 0.293-11.568 1.774-22.858 0.712-34.454-2.193-23.928-16.985-45.327-34.546-60.891-17.889-15.854-40.675-27.275-64.302-31.19-14.782-2.45-30.259-2.519-45.208-2.649-15.876-0.138-31.752 0.583-47.578 1.811-29.396 2.281-58.552 6.725-87.635 11.463-30.565 4.979-67.537 9.118-90.677 31.989-10.782 10.656-14.981 25.026-14.769 39.899 0.161 11.285 3.341 21.865 5.439 32.835l16.314 85.272c2.054 10.735 4.108 21.471 6.162 32.206 0.279 1.461 0.31 2.691 1.266 3.824 3.877 4.594 7.754 9.189 11.631 13.783 5.441 6.449 10.882 12.896 16.323 19.346 3.468 4.109 8.748 6.557 13.219 9.463 11.23 7.301 22.162 14.977 33.137 22.658-0.502-0.352 1.017-4.383 0-5.094-8.348-5.844-16.58-11.895-25.124-17.449-5.957-3.873-11.914-7.744-17.871-11.617-2.713-1.764-4.483-4.387-6.571-6.859-8.399-9.955-16.798-19.908-25.197-29.861 0.014 0.016-0.057 0.014-0.216-0.816-0.252-1.316-0.504-2.635-0.756-3.951-0.927-4.846-1.854-9.691-2.781-14.536-5.703-29.812-11.407-59.623-17.11-89.434-1.43-7.477-2.681-14.97-4.639-22.322-5.151-19.346-2.351-38.521 12.178-52.88 11.391-11.258 27.172-17.358 42.281-21.721 15.914-4.596 32.34-7.127 48.659-9.786 29.421-4.793 58.898-9.156 88.633-11.464 15.835-1.229 31.717-1.785 47.598-1.647 14.787 0.129 29.988 0.427 44.603 2.849 23.719 3.931 46.242 16.13 64.104 31.961 9.416 8.345 17.473 18.238 23.442 29.321 7.602 14.113 10.597 28.164 9.756 44.204-0.733 14.001-0.986 27.572-0.263 41.599 0.898 17.387-0.264 34.064-7.019 50.251-9.934 23.803-29.751 42.43-51.179 55.859-9.837 6.166-20.328 12.07-26.427 22.297-5.745 9.633-6.33 21.605-7.852 32.428-1.88 13.365-7.54 25.703-10.606 38.789-2.288 9.768-2.513 20.236 0.051 29.959-0.21-0.88 0.54-3.48 0.16-4.92z"/></g></g><g><path fill="#FFF" d="m186.98 362.56c-7.779 14.693-13.829 26.797-19.017 43.219-5.186 16.424-3.456 31.98-5.186 49.27-2.593 29.389-25.067 76.932 18.152 84.709 32.847 5.188 63.965 9.51 96.813 12.102 19.015 1.729 30.253-2.592 48.406-7.777 17.286-5.189 31.982 0 49.27-0.865 19.881-1.73 35.438-9.508 41.489-27.66 6.915-20.746 7.78-34.576-0.865-54.457-6.915-19.883-8.642-35.441-6.051-56.186 1.73-13.83 4.324-38.898-2.591-50.998"/><g><path fill="none" d="m186.98 362.56c-7.779 14.693-13.829 26.797-19.017 43.219-5.186 16.424-3.456 31.98-5.186 49.27-2.593 29.389-25.067 76.932 18.152 84.709 32.847 5.188 63.965 9.51 96.813 12.102 19.015 1.729 30.253-2.592 48.406-7.777 17.286-5.189 31.982 0 49.27-0.865 19.881-1.73 35.438-9.508 41.489-27.66 6.915-20.746 7.78-34.576-0.865-54.457-6.915-19.883-8.642-35.441-6.051-56.186 1.73-13.83 4.324-38.898-2.591-50.998"/><path d="m186.92 360.39c-6.537 12.369-12.683 24.857-17.319 38.08-4.355 12.424-5.563 24.926-6.039 38-0.428 11.744-1.494 23.008-3.85 34.502-1.781 8.688-3.686 17.348-4.698 26.168-1.584 13.797-1.314 30.279 11.049 39.188 9.988 7.199 24.655 7.236 36.33 8.969 15.99 2.371 32.018 4.486 48.086 6.248 15.042 1.648 30.653 4.121 45.766 2.281 13.915-1.693 26.799-8.086 40.708-9.563 14.261-1.514 28.478 2.559 42.756 0.725 10.646-1.367 21.062-5.203 28.738-12.906 8.094-8.121 11.025-20.516 13.015-31.424 1.695-9.293 1.577-19.369-0.794-28.531-1.793-6.926-4.769-13.42-6.855-20.254-2.525-8.27-4.108-16.781-4.628-25.412-0.818-13.623 2.221-27.254 2.826-40.852 0.489-10.996 0.809-23.895-4.553-33.863 0.285 0.529-0.708 3.244-0.119 4.34 6.238 11.598 4.663 26.461 3.424 39.074-1.105 11.242-2.468 22.244-1.967 33.572 0.576 13.008 3.757 25.947 8.612 37.986 6.726 16.674 4.901 34.166-2.042 50.488-4.382 10.301-13.415 16.994-23.734 20.578-12.768 4.432-25.944 3.156-39.138 2.115-7-0.553-13.937-0.584-20.874 0.6-7.399 1.264-14.624 4.082-21.865 6.037-14.081 3.803-27.404 3.525-41.82 2.242-29.428-2.617-59.295-5.941-88.323-11.525-8.164-1.57-15.844-5.482-20.415-12.613-5.144-8.023-4.717-18.113-3.515-27.16 2.336-17.586 7.202-34.377 8.025-52.197 0.708-15.311 1.475-29.529 6.592-44.129 4.433-12.643 10.49-24.602 16.738-36.424 0.57-1.14-0.41-3.83-0.13-4.37z"/></g></g><g><path d="m228.54 387.49c-9.566 13.625-14.631 34.684-7.315 52.025 9.001 20.438 42.757-6.813 38.257-26.014-7.877 11.768-6.188 33.441 10.689 30.348 15.191-3.096 28.693-17.34 28.693-34.682 0.563 7.434 0.563 14.244 1.124 21.68 0.563 9.906 0 11.764 9.002 14.24 17.442 4.957 29.256-4.955 36.571-21.057 0 11.15-6.755 34.064 5.625 35.922 13.504 1.855 21.94-20.438 25.315-31.588 2.814 13.006 0 19.203 14.628 21.057 3.938 0 4.501-3.709 10.13 1.24 3.374 3.717 5.625 8.672 7.313 13.625 2.813 11.768 1.687 22.299-1.127 34.684-1.685 5.574-2.812 30.348-12.378 22.291-5.062-4.332-1.123-31.582-15.19-27.865-9.561 2.479-6.75 29.727-14.626 30.348-12.94 1.859-10.126-29.729-19.689-30.969-12.377-1.238-10.127 24.775-16.318 30.348-11.813 8.672-20.253-17.34-25.316-24.152-10.688-15.484-14.626 3.094-19.689 13.625-6.191 12.387-14.067 23.531-25.881 10.527-6.752-6.811-8.439-34.061-18.002-34.061-12.379 0.617-10.691 25.395-17.442 30.969-12.377 11.143-16.313-14.248-16.313-23.539 0.561-5.572 3.375-11.768-2.814-14.863-5.625-3.096-10.127 2.48-12.377 6.813-3.938 6.195-8.439 29.727-18.566 27.25-7.876-1.857-6.188-26.012-6.75-32.205-1.125-12.387 1.687-23.533 4.5-35.918 2.25-11.77 6.188-24.156 11.252-35.301 3.376-6.197 12.939-24.777 19.689-25.396 2.252 9.293-7.311 18.582-4.5 27.252 2.814 9.908 15.753 8.051 20.817 1.238"/><g><path fill="none" d="m228.54 387.49c-9.566 13.625-14.631 34.684-7.315 52.025 9.001 20.438 42.757-6.813 38.257-26.014-7.877 11.768-6.188 33.441 10.689 30.348 15.191-3.096 28.693-17.34 28.693-34.682 0.563 7.434 0.563 14.244 1.124 21.68 0.563 9.906 0 11.764 9.002 14.24 17.442 4.957 29.256-4.955 36.571-21.057 0 11.15-6.755 34.064 5.625 35.922 13.504 1.855 21.94-20.438 25.315-31.588 2.814 13.006 0 19.203 14.628 21.057 3.938 0 4.501-3.709 10.13 1.24 3.374 3.717 5.625 8.672 7.313 13.625 2.813 11.768 1.687 22.299-1.127 34.684-1.685 5.574-2.812 30.348-12.378 22.291-5.062-4.332-1.123-31.582-15.19-27.865-9.561 2.479-6.75 29.727-14.626 30.348-12.94 1.859-10.126-29.729-19.689-30.969-12.377-1.238-10.127 24.775-16.318 30.348-11.813 8.672-20.253-17.34-25.316-24.152-10.688-15.484-14.626 3.094-19.689 13.625-6.191 12.387-14.067 23.531-25.881 10.527-6.752-6.811-8.439-34.061-18.002-34.061-12.379 0.617-10.691 25.395-17.442 30.969-12.377 11.143-16.313-14.248-16.313-23.539 0.561-5.572 3.375-11.768-2.814-14.863-5.625-3.096-10.127 2.48-12.377 6.813-3.938 6.195-8.439 29.727-18.566 27.25-7.876-1.857-6.188-26.012-6.75-32.205-1.125-12.387 1.687-23.533 4.5-35.918 2.25-11.77 6.188-24.156 11.252-35.301 3.376-6.197 12.939-24.777 19.689-25.396 2.252 9.293-7.311 18.582-4.5 27.252 2.814 9.908 15.753 8.051 20.817 1.238"/><path d="m228.48 385.03c-7.6 11.143-11.4 24.574-10.967 38.051 0.291 9.049 1.502 24.695 12.953 26.176 8.931 1.154 18.279-6.883 23.173-13.484 5.292-7.139 7.771-15.656 5.979-24.475-0.019-0.094-0.051-0.484-0.196-0.258-5.421 8.504-7.869 24.773-0.121 32.746 5.869 6.039 16.135 1.627 22.061-1.857 8.068-4.74 13.87-12.803 16.447-21.705 0.457-1.578 0.773-3.246 0.953-4.873 0.089-0.652 0.155-1.307 0.2-1.961 0.037-0.559-0.343-3.416-0.181-1.096 0.421 5.988 0.505 11.996 0.865 17.988 0.305 5.047-0.7 12.6 4.404 15.566 7.301 4.246 17.577 3.941 24.968 0.342 7.909-3.854 13.028-12.023 16.618-19.709-0.104-1.043-0.209-2.088-0.313-3.133-0.131 9.146-8.59 40.555 8.823 39.172 8.797-0.699 14.33-11.6 17.535-18.514 1.848-3.984 3.315-8.148 4.632-12.334-0.204 0.648 1.098 4.738 1.265 5.893 0.276 1.918 0.501 3.875 1.015 5.748 2.111 7.684 10.08 9.504 16.975 7.414 5.756-1.744 10.105 8.863 11.729 12.723 4.351 10.336 2.895 22.918-0.038 33.514-1.876 6.777-1.607 14.084-4.923 20.461-1.494 2.873-3.894 3.52-6.56 1.828-2.751-1.742-2.995-6.127-3.455-9-0.951-5.936-1.146-14.172-6.046-18.438-6.308-5.488-11.395 3.379-12.838 8.254-1.722 5.822-1.356 16.805-6.71 20.641-6.293 4.508-10.607-7.252-11.761-11.07-1.753-5.801-2.347-13.863-6.958-18.273-5.759-5.506-10.938 4.67-12.217 8.748-1.897 6.045-1.635 17.164-7.36 21.006-7.741 5.195-14.396-6.508-17.376-11.807-3.222-5.729-6.689-16.814-13.817-18.75-6.614-1.797-10.888 14.74-12.604 18.592-4.276 9.598-12.419 22.795-23.709 13.918-7.061-5.551-8.437-16.037-11.122-24.061-1.851-5.529-5.093-14.908-12.615-11.705-6.664 2.838-7.979 13.891-9.565 19.895-1.391 5.268-5.667 16.473-13.192 12.215-5.923-3.352-8.311-17.172-7.352-23.146 1.063-6.621 2.959-18.207-7.279-18.045-7.854 0.125-11.378 14.543-13.536 20.131-1.999 5.174-6.758 18.148-14.554 14.326-3.187-1.563-3.928-6.959-4.414-9.959-0.813-5.021-0.737-10.184-0.801-15.256-0.084-6.621-0.465-13.137 0.504-19.746 1.135-7.742 3.096-15.404 4.793-23.035 2.828-12.715 7.318-25.102 13.676-36.463 2.532-4.525 5.254-8.967 8.478-13.037 1.257-1.588 2.67-3.027 4.257-4.283 0.624-0.494 1.32-0.844 2.04-1.17 2.291-1.041 0.284 4.404-0.004 5.262-2.592 7.709-6.137 15.713-2.407 23.734 3.842 8.262 15.596 4.627 20.024-0.826 0.943-1.16-0.639-4.307 0-5.094-5.423 6.678-17.458 8.533-20.749-1.146-1.479-4.35 3.681-11.57 4.487-15.969 0.668-3.65 0.746-7.373 0.074-11.027 0.003-0.137-0.04-0.252-0.128-0.348-7.471 1.279-12.92 13.197-16.206 18.992-6.202 10.939-10.33 22.826-13.338 35.016-3.035 12.301-6.248 25.117-6.387 37.852-0.093 8.504 0.204 17.289 0.854 25.773 0.386 5.041 0.737 15.252 7.153 16.422 7.24 1.318 11.331-11.344 13.173-16.113 2.649-6.859 6.868-22.482 17.002-18.09 5.425 2.352 2.517 7.918 2.559 12.316 0.031 3.234 0.231 6.463 0.685 9.666 0.853 6.021 2.08 15.35 7.966 18.68 6.825 3.861 11.242-7.33 12.496-11.76 1.933-6.834 2.942-17.799 10.418-20.982 7.853-3.344 11.179 9.953 12.767 14.949 2.648 8.332 4.306 16.459 11.477 22.098 10.32 8.113 18.313-6.521 22.153-14.092 2.432-4.795 5.905-21.295 13.655-19.191 3.875 1.053 6.415 6.104 8.215 9.395 2.146 3.926 4.078 7.955 6.372 11.801 3.497 5.861 9.355 13.541 16.695 8.615 2.105-1.412 2.875-5.129 3.489-7.357 1.125-4.082 1.807-8.271 2.919-12.357 1.338-4.916 6.536-15.051 12.77-9.09 4.762 4.555 5.226 14.309 7.223 20.266 1.41 4.211 5.835 12.434 11.508 8.369 2.091-1.498 2.801-4.883 3.41-7.182 1.086-4.096 1.705-8.301 2.752-12.408 1.48-5.805 6.662-14.471 13.463-8.553 5.262 4.578 4.659 15.055 6.022 21.332 0.685 3.152 1.932 6.098 5.478 6.703 3.869 0.662 5.564-6.113 6.249-8.604 1.209-4.395 1.739-8.947 2.551-13.422 1.29-7.115 3.018-14.021 3.288-21.293 0.24-6.428 0.452-14.098-1.725-20.244-1.71-4.826-6.384-18.221-13.734-15.992-4.725 1.432-10.242 0.814-13.969-2.875-3.777-3.742-3.306-11.947-4.306-16.797 0.012 0.057-0.096-0.586-0.196-0.258-3.354 10.943-9.128 29.334-22.295 31.521-15.848 2.637-8.453-24.295-8.333-32.723 0.008-0.506-0.318-3.119-0.313-3.133-6.211 13.295-16.579 23.961-32.26 21.902-5.539-0.729-11.996-2.27-12.711-8.605-1.007-8.936-0.81-18.021-1.439-26.988-0.151-2.162-0.438-0.604-0.465 0.607-0.354 15.961-16.56 35.213-33.84 32.924-7.525-0.998-10.31-9.633-9.093-16.092 0.311-1.648 0.868-3.238 1.466-4.799 0.194-0.506 2.368-3.998 2.379-3.945 0.623 3.066-1.767 7.35-3.178 9.955-4.855 8.967-16.951 20.227-28.143 17.188-9.491-2.576-10.638-18.553-10.01-25.871 0.854-9.949 4.814-19.703 10.407-27.902 0.73-1.11-0.49-4.44-0.16-4.91z"/></g></g><g><path fill="#FFF" d="m111.01 176.43c10.258 18.476 9.325 47.22 12.123 68.778 2.796 23.609 6.528 47.222 12.124 70.833 6.525 24.637 18.649 35.93 41.962 41.064 9.327 2.053 21.449-1.031 29.843 6.156 7.459 7.186 11.19 25.666 12.121 35.932-1.863 2.053 0-1.031-1.863-2.055"/><g><path fill="none" d="m111.01 176.43c10.258 18.476 9.325 47.22 12.123 68.778 2.796 23.609 6.528 47.222 12.124 70.833 6.525 24.637 18.649 35.93 41.962 41.064 9.327 2.053 21.449-1.031 29.843 6.156 7.459 7.186 11.19 25.666 12.121 35.932-1.863 2.053 0-1.031-1.863-2.055"/><path d="m110.94 178.88c11.501 21.465 9.605 48.392 12.473 71.952 1.732 14.233 3.862 28.415 6.465 42.515 2.293 12.421 4.409 25.272 9.317 36.979 7.262 17.324 23.492 27.877 41.977 29.912 10.895 1.199 22.542-0.758 29.244 9.916 5.575 8.881 7.586 20.566 8.585 30.834 0.06-1.449 0.12-2.898 0.18-4.348-0.193 0.508-0.492 0.709-0.897 0.607 0.073 0.42 0.146 0.84 0.22 1.262-0.113-1.572-0.019-2.768-1.186-3.924 0.615 0.609-1.001 4.1 0 5.094 0.545 0.354 0.794 0.82 0.746 1.4 0.006 0.088 0.013 1.24 0.22 1.262 3.049 0.309-1.176-19.008-1.495-20.367-2.298-9.791-5.747-20.912-15.954-24.756-5.282-1.988-11.36-1.641-16.903-1.881-5.81-0.254-11.42-1.758-16.882-3.684-9.48-3.344-17.497-9.279-23.13-17.621-7.434-11.006-9.718-24.68-12.303-37.428-3.313-16.336-5.794-32.837-7.845-49.376-2.97-23.953-0.981-51.395-12.697-73.262 0.32 0.62-0.8 3.69-0.14 4.93z"/></g></g><g><path d="m284.46 396.11c-17.721-10.27-33.572-33.877-40.101-54.41-4.662-14.373 7.46-54.406 27.044-53.383 13.056 0 22.38 36.961 22.38 49.279-0.933 11.291-5.596 17.451-8.393 27.715-2.797 10.266-1.863 21.557-1.863 31.824"/><g><path fill="none" d="m284.46 396.11c-17.721-10.27-33.572-33.877-40.101-54.41-4.662-14.373 7.46-54.406 27.044-53.383 13.056 0 22.38 36.961 22.38 49.279-0.933 11.291-5.596 17.451-8.393 27.715-2.797 10.266-1.863 21.557-1.863 31.824"/><path d="m284.46 393.56c-10.886-6.504-19.413-16.143-26.458-26.561-6.018-8.9-13.134-20.633-14.318-31.535-1.007-9.277 3.203-20.23 7.307-28.357 3.514-6.961 8.991-14.197 16.987-16.004 7.75-1.752 12.405 4.926 15.629 10.938 4.406 8.211 6.976 17.58 8.75 26.68 1.105 5.666 1.169 10.205-0.464 15.869-1.641 5.688-4.33 11.029-6.114 16.676-3.635 11.51-2.561 23.988-2.507 35.867 0.013 2.893 0.523 2.895 0.51 0-0.04-8.75-0.591-17.5 0.937-26.168 1.232-6.99 4.559-13.406 6.863-20.063 2.591-7.488 2.796-14.908 1.699-22.646-1.265-8.926-3.766-17.813-7.202-26.137-2.448-5.93-6.421-14.58-13.361-16.227-7.185-1.705-14.155 4.564-17.93 9.876-5.229 7.358-8.395 15.927-10.281 24.706-1.437 6.686-1.882 13.803-0.934 20.588 1.507 10.775 8.442 21.938 14.293 30.85 6.909 10.521 15.723 20.248 26.593 26.742-0.44-0.26 0.99-4.5-0.01-5.1z"/></g></g><g><path d="m306.84 398.16c-11.191-22.582 0-43.111-0.935-65.695-0.933-16.426-27.977-55.435 6.529-45.17 20.515 6.16 33.571 39.01 28.909 59.543-5.597 22.584-18.653 33.873-33.574 50.299"/><g><path fill="none" d="m306.84 398.16c-11.191-22.582 0-43.111-0.935-65.695-0.933-16.426-27.977-55.435 6.529-45.17 20.515 6.16 33.571 39.01 28.909 59.543-5.597 22.584-18.653 33.873-33.574 50.299"/><path d="m306.91 395.7c-4.784-10.158-5.305-20.531-3.81-31.596 0.869-6.434 2.013-12.818 2.659-19.281 0.742-7.418 0.839-14.799-1.216-21.996-2.021-7.08-5.033-13.846-7.294-20.85-1.967-6.094-3.571-13.145 4.865-13.813 21.403-1.699 34.772 22.056 38.714 39.745 6.087 27.322-16.432 48.455-33.057 66.678-0.979 1.072 0.631 4.402 0 5.094 14.894-16.324 33.086-33.447 34.604-57.023 1.186-18.412-4.664-38.359-18.433-51.17-5.932-5.518-15.699-9.813-23.931-8.127-5.11 1.047-5.46 6.706-5.306 10.945 0.237 6.518 2.323 12.641 4.526 18.725 3.455 9.541 7.039 17.775 6.166 28.189-1.701 20.297-7.803 39.904 1.376 59.393-0.32-0.65 0.74-3.6 0.13-4.9z"/></g></g><g><path d="m280.73 256.5c14.921 0 19.584-55.432 19.584-67.751 0-22.587-7.462-41.063-25.18-52.357-13.988-9.24-40.099-23.612-55.954-19.504-18.65 3.078-41.032 30.799-45.694 49.274-7.462 27.719 2.799 96.499 18.65 118.06 26.11 39 67.14-4.11 88.59-27.72 0.933-1.025 2.799-3.079 3.731-5.133"/><g><path fill="none" d="m280.73 256.5c14.921 0 19.584-55.432 19.584-67.751 0-22.587-7.462-41.063-25.18-52.357-13.988-9.24-40.099-23.612-55.954-19.504-18.65 3.078-41.032 30.799-45.694 49.274-7.462 27.719 2.799 96.499 18.65 118.06 26.11 39 67.14-4.11 88.59-27.72 0.933-1.025 2.799-3.079 3.731-5.133"/><path d="m280.73 259.04c5.424-0.232 8.342-6.377 10.192-10.677 3.222-7.489 4.823-15.747 6.206-23.741 2.527-14.616 4.177-29.862 3.113-44.702-0.753-10.51-3.452-20.806-8.935-29.861-5.634-9.307-14.356-15.324-23.496-20.816-10.232-6.149-21.213-11.583-32.861-14.411-10.173-2.47-19.702-0.676-28.52 4.833-16.595 10.368-30.727 30.048-34.17 49.377-3.132 17.577-1.595 36.464 0.738 54.031 3.955 29.78 15.522 94.301 59.769 75.954 11.028-4.572 20.571-12.618 29.229-20.658 4.355-4.046 8.502-8.313 12.576-12.64 3.488-3.706 7.535-7.392 9.958-11.911 0.665-1.24-0.458-4.31-0.136-4.912-2.373 4.426-6.411 8.083-9.822 11.729-3.761 4.02-7.628 7.938-11.615 11.735-7.821 7.45-16.301 14.386-25.854 19.498-8.188 4.382-17.583 6.907-26.757 4.479-9.631-2.549-16.547-11.133-21.204-19.453-9.851-17.602-13.48-39.408-16.005-59.146-2.596-20.292-4.39-42.554 5.292-61.292 9.272-17.946 27.863-39.26 50.055-37.6 11.701 0.875 23.147 6.549 33.299 12.037 9.734 5.262 19.448 11.118 26.443 19.852 13.271 16.567 12.621 38.312 10.274 58.203-1.093 9.259-2.652 18.534-5.257 27.496-1.667 5.738-4.029 13.552-9.569 16.745-0.9 0.519-1.92 0.715-2.943 0.759-0.44 0.03-0.3 5.12 0.01 5.1z"/></g></g><g><path d="m400.1 141.52c-34.503 7.186-55.951 36.956-56.886 75.965-0.933 32.852 17.721 73.916 50.359 76.994 37.301 4.108 45.695-47.22 44.763-80.072-0.933-17.451-4.665-33.877-12.124-50.304-3.732-8.211-6.529-16.421-13.988-21.555-8.395-5.132-14.921 0-23.315-2.053"/><g><path fill="none" d="m400.1 141.52c-34.503 7.186-55.951 36.956-56.886 75.965-0.933 32.852 17.721 73.916 50.359 76.994 37.301 4.108 45.695-47.22 44.763-80.072-0.933-17.451-4.665-33.877-12.124-50.304-3.732-8.211-6.529-16.421-13.988-21.555-8.395-5.132-14.921 0-23.315-2.053"/><path d="m400.1 138.97c-20.763 4.518-37.58 17.563-47.423 36.343-9.161 17.482-11.49 39.044-8.857 58.445 2.761 20.332 11.241 41.382 27.745 54.373 14.577 11.475 35.953 12.895 49.107-1.241 7.988-8.585 11.864-20.515 14.404-31.711 2.789-12.295 3.657-25.061 3.574-37.642-0.12-17.999-3.99-35.896-10.881-52.493-3.176-7.649-6.317-15.889-12.002-22.056-7.764-8.424-17.261-3.186-26.859-5.042-0.068-0.013-0.671 4.964 0 5.094 6.203 1.2 12.279-0.975 18.473 0.066 7.352 1.235 11.909 8.813 14.915 14.892 6.68 13.51 11.683 27.752 14.206 42.624 3.714 21.878 1.702 46.738-7.133 67.251-3.444 7.996-8.606 15.398-16.069 20.074-7.696 4.822-17.154 4.964-25.754 2.953-21.398-5.004-34.296-26.681-40.236-46.232-12.719-41.859 8.021-90.863 52.79-100.6 0.71-0.14 0.03-5.09 0.01-5.09z"/></g></g><g><path d="m121.26 192.85c18.651 25.667 7.46 68.783 13.057 98.553 9.324-25.667 23.313-90.338-10.26-98.553"/><g><path fill="none" d="m121.26 192.85c18.651 25.667 7.46 68.783 13.057 98.553 9.324-25.667 23.313-90.338-10.26-98.553"/><path d="m121.2 195.3c10.632 15.108 11.319 34.205 11.259 52.033-0.052 15.4-0.992 31.02 1.737 46.264-0.005-0.029 0.084 0.566 0.196 0.256 6.728-18.691 10.795-38.832 11.154-58.709 0.304-16.838-2.108-39.745-21.482-44.846 0.04 0.01-0.756 4.895 0 5.094 14.285 3.761 19.443 17.726 20.719 31.146 1.605 16.878-2.298 34.731-6.848 50.906-0.808 2.872-1.698 5.721-2.646 8.549-0.451 1.344-0.813 3.488-1.271 0.66-0.526-3.25-0.776-6.544-0.97-9.827-0.639-10.808-0.076-21.677-0.075-32.495 0-18.301-0.726-38.435-11.638-53.941 0.31 0.47-0.91 3.83-0.14 4.92z"/></g></g><g><path d="m482.16 170.26c-3.729 19.505-13.056 59.543 7.462 68.779 1.865-19.504-11.191-39.009-11.191-58.514"/><g><path fill="none" d="m482.16 170.26c-3.729 19.505-13.056 59.543 7.462 68.779 1.865-19.504-11.191-39.009-11.191-58.514"/><path d="m482.03 168.06c-2.653 13.796-5.352 27.535-5.5 41.637-0.122 11.58 1.356 26.229 13.091 31.889 0.112 0.054 0.219-1.251 0.22-1.261 0.592-7.908-0.329-15.561-2.225-23.246-3.048-12.356-8.706-24.32-8.941-37.23-0.064-3.574-0.521-0.267-0.49 1.354 0.133 7.286 1.525 14.285 3.493 21.283 3.196 11.367 8.625 23.21 7.724 35.268 0.073-0.42 0.146-0.841 0.22-1.261-11.268-5.435-13.007-19.139-12.475-30.333 0.541-11.365 2.998-22.56 5.142-33.701 0.2-1-0.16-4.84-0.25-4.4z"/></g></g><g><g><path fill="#FFF" d="m265.54 215.73c0 21.688-16.116 39.269-35.995 39.269-19.881 0-35.997-17.582-35.997-39.269s16.116-39.268 35.997-39.268c19.88 0 36 17.58 36 39.27z"/></g><g><path d="m265.82 244.09c0 21.688-16.114 39.268-35.995 39.268s-35.996-17.581-35.996-39.268c0-21.687 16.116-39.268 35.996-39.268s36 17.58 36 39.27z"/></g></g><g><g><path fill="#FFF" d="m421.9 220.9c0 18.889-14.036 34.202-31.352 34.202s-31.35-15.313-31.35-34.202c0-18.888 14.034-34.201 31.35-34.201s31.35 15.32 31.35 34.2z"/></g><g><path d="m422.14 245.6c0 18.889-14.035 34.202-31.35 34.202s-31.352-15.313-31.352-34.202c0-18.888 14.036-34.201 31.352-34.201 17.32 0 31.35 15.32 31.35 34.2z"/></g></g><path d="m236.94 189.58c0 6.031-5.146 10.919-11.494 10.919s-11.494-4.889-11.494-10.919 5.146-10.919 11.494-10.919 11.49 4.89 11.49 10.92z"/><path d="m399.01 199.35c0 4.443-3.603 8.046-8.046 8.046s-8.046-3.603-8.046-8.046 3.603-8.046 8.046-8.046 8.05 3.6 8.05 8.05z"/></g><g><g><path fill="none" d="m434.64 113.14c10.345 12.644-14.942 25.288 0 34.483 5.747 3.448 21.839-2.299 22.988-9.195 2.299-9.195-10.345-10.345-12.644-19.541"/><path d="m434.64 116.13c1.777 2.358 2.407 3.065 1.629 5.495-0.663 2.069-1.747 4.014-2.766 5.923-1.768 3.312-3.513 6.495-3.914 10.281-0.816 7.688 2.505 14.231 11.166 13.752 8.58-0.474 17.189-5.397 17.439-14.5 0.102-3.695-0.379-6.67-2.95-9.446-3.695-3.99-8.467-6.037-10.181-11.635 0.299 0.974-0.669 4.104-0.158 5.771 1.137 3.716 3.565 6.159 6.512 8.575 1.549 1.271 3.1 2.489 4.466 3.963 1.926 2.079 1.56 2.666-0.271 4.787-4.535 5.258-15.811 8.948-21.951 4.886-1.5-0.992-2.641-2.359-3.368-3.996 0.42 0.945 0.255-0.214 0.548-0.999 0.307-0.82 0.706-1.607 1.09-2.392 1.638-3.354 3.627-6.483 4.773-10.061 1.68-5.245 1.278-11.953-2.064-16.388 0.74 1.02-1.09 4.58-0.01 6.01z"/></g></g><g><g><path fill="none" d="m442.78 278.12c2.469 13.189-20.736 12.331-13.595 24.848 2.782 4.751 16.644 6.954 20.19 2.437 5.281-5.72-3.376-11.532-1.407-19.064"/><path d="m442.65 280.25c0.557 3.861-10.203 8.861-12.897 11.521-3.365 3.324-2.644 9.76-0.639 13.574 3.323 6.32 16.888 6.78 21.012 1.569 1.546-1.953 1.293-5.243 1.157-7.566-0.202-3.459-3.806-7.651-3.196-10.879 0.182-0.964-0.167-4.675-0.248-4.244-0.476 2.521-0.664 5.328-0.213 7.875 0.63 3.547 4.167 7.793 1.744 10.854-4.298 5.431-17.707 2.251-20.595-3.241-0.155-0.997-0.376-1.121-0.661-0.37 0.191-0.785 0.714-1.527 1.189-2.15 0.87-1.141 2.121-2.008 3.277-2.831 2.401-1.712 4.964-3.135 7.168-5.117 3.778-3.399 3.825-8.551 3.149-13.238-0.137-0.949-0.328 0.737-0.336 0.882-0.05 1.12-0.06 2.26 0.1 3.37z"/></g></g><g><g><path fill="none" d="m123.14 131.53c11.494-5.747 22.989 8.046 11.494 17.241"/><path d="m123.14 134.52c4.165-1.908 8.551-1.769 12.322 0.938 1.84 1.32 3.125 3.396 3.628 5.585-0.463-2.016-0.716 0.258-1.257 1.224-0.781 1.394-2 2.489-3.198 3.51-0.525 0.447-0.299 2.409-0.299 2.992 0 0.21 0.306 2.987 0.299 2.992 4.76-4.055 6.419-10.857 4.525-16.889-2.175-6.925-9.74-9.213-16.019-6.336-1.09 0.52 0.35 5.84 0 6z"/></g></g><g><g><path fill="none" d="m155.33 143.02c-12.644-3.448-8.046-16.092 0-21.839"/><path d="m155.33 140.03c-1.775-0.549-3.325-1.222-4.83-2.319-0.893-0.65-1.534-1.568-2.081-2.509-0.796-1.372-1.026 1.167-0.296-1.452 1.09-3.91 4.035-7.19 7.207-9.575 1.2-0.902-0.625-5.515 0-5.984-8.676 6.526-13.275 23.719 0 27.824-0.13-0.04 0.95-5.69 0-5.99z"/></g></g><g><g><path fill="none" d="m124.29 120.04c10.345 1.149 25.288 5.748 27.586-8.046"/><path d="m124.29 123.03c10.303 1.231 24.914 5.355 27.737-8.455 0.267-1.306 0.185-2.772 0.107-4.094-0.012-0.202-0.177-2.208-0.409-1.073-2.7 13.203-17.933 8.772-27.436 7.637-0.22-0.04-0.66 5.89 0 5.97z"/></g></g></g></g></g></switch><metadata/></svg>