<svg xmlns="http://www.w3.org/2000/svg" xmlns:svg="http://www.w3.org/2000/svg" id="svg2" width="512" height="512" version="1.1" viewBox="0 0 512 512"><metadata id="metadata7"/><g id="layer1" transform="translate(0,-540.36216)"><g id="g4212"><g id="g4220" transform="translate(-4.2857143,-16.428571)"><g id="g4241" transform="translate(3.5584911,17.874004)"><g id="g4234" transform="translate(-4.8058887e-6,0)"><circle style="fill:none;fill-opacity:1;stroke:#000;stroke-width:1;stroke-linecap:round;stroke-linejoin:round;stroke-miterlimit:1;stroke-dasharray:none;stroke-opacity:1" id="path4136" cx="258.168" cy="872.186" r="101.429"/><path style="fill:#10d000;fill-opacity:1;fill-rule:evenodd;stroke:#00b003;stroke-width:1.82392991;stroke-linecap:butt;stroke-linejoin:miter;stroke-miterlimit:4;stroke-dasharray:none;stroke-opacity:1" id="path4202" d="m 183.57143,689.50502 40.71428,0 -64.91779,-112.44093 -57.93935,0 z" transform="matrix(1,0,0,1.2023854,52.765603,-77.537009)"/><path id="path4204" d="m 224.35182,689.50502 -40.71428,0 64.91779,-112.44093 57.93935,0 z" transform="matrix(1,0,0,1.2023854,52.765603,-77.537009)" style="fill:#47a100;fill-opacity:1;fill-rule:evenodd;stroke:#0d9218;stroke-width:1.82392991;stroke-linecap:butt;stroke-linejoin:miter;stroke-miterlimit:4;stroke-dasharray:none;stroke-opacity:1"/><path style="fill:#ffe310;fill-opacity:1;stroke:#facf00;stroke-width:2;stroke-linecap:round;stroke-linejoin:round;stroke-miterlimit:1;stroke-dasharray:none;stroke-opacity:1" id="circle4144" d="m 235.12807,751.90067 c -4.68685,0 -8.46094,3.77213 -8.46094,8.45898 l 0,15.54492 a 101.42857,101.42857 0 0 0 -69.92773,96.28126 101.42857,101.42857 0 0 0 101.42773,101.42773 101.42857,101.42857 0 0 0 101.42969,-101.42773 101.42857,101.42857 0 0 0 -69.92969,-96.3418 l 0,-15.48438 c 0,-4.68685 -3.77213,-8.45898 -8.45898,-8.45898 l -46.08008,0 z"/><circle style="fill:#ffd800;fill-opacity:1;stroke:#facf00;stroke-width:2;stroke-linecap:round;stroke-linejoin:round;stroke-miterlimit:1;stroke-dasharray:none;stroke-opacity:1" id="circle4195" cx="258.168" cy="872.186" r="87.143"/></g></g></g></g></g></svg>